<svg width="23" height="23" viewBox="0 0 23 23" fill="none" xmlns="http://www.w3.org/2000/svg">
<path d="M13.5456 1.72398L13.5461 1.72436L20.1633 6.35411C20.1634 6.35415 20.1634 6.35418 20.1635 6.35422C20.6337 6.68346 21.1031 7.24354 21.4558 7.91912C21.8085 8.59476 22 9.30057 22 9.87748V17.6667C22 20.044 20.0696 21.9744 17.6923 21.9744H5.3077C2.93322 21.9744 1 20.0353 1 17.6552V9.72813C1 9.19551 1.17267 8.52594 1.49455 7.8722C1.81616 7.21902 2.24416 6.66817 2.67148 6.33487L2.67169 6.3347L8.4247 1.84482C8.42512 1.84449 8.42555 1.84416 8.42598 1.84383C9.81439 0.769067 12.1013 0.712069 13.5456 1.72398ZM11.5 20.2406C12.5233 20.2406 13.3616 19.4023 13.3616 18.379V14.9324C13.3616 13.9091 12.5233 13.0708 11.5 13.0708C10.4767 13.0708 9.63834 13.9091 9.63834 14.9324V18.379C9.63834 19.4023 10.4767 20.2406 11.5 20.2406Z" fill="white" stroke="#848282" stroke-width="2"/>
</svg>
