<svg width="15" height="15" viewBox="0 0 15 15" fill="none" xmlns="http://www.w3.org/2000/svg">
<g clip-path="url(#clip0_2325_79)">
<path d="M7.5 3.75C7.00555 3.75 6.5222 3.89662 6.11108 4.17133C5.69995 4.44603 5.37952 4.83648 5.1903 5.29329C5.00108 5.75011 4.95157 6.25277 5.04804 6.73773C5.1445 7.22268 5.3826 7.66814 5.73223 8.01777C6.08187 8.3674 6.52732 8.6055 7.01228 8.70196C7.49723 8.79843 7.9999 8.74892 8.45671 8.5597C8.91353 8.37048 9.30397 8.05005 9.57868 7.63893C9.85338 7.2278 10 6.74445 10 6.25C10 5.58696 9.73661 4.95107 9.26777 4.48223C8.79893 4.01339 8.16304 3.75 7.5 3.75ZM7.5 7.5C7.25277 7.5 7.0111 7.42669 6.80554 7.28934C6.59998 7.15199 6.43976 6.95676 6.34515 6.72835C6.25054 6.49995 6.22579 6.24861 6.27402 6.00614C6.32225 5.76366 6.4413 5.54093 6.61612 5.36612C6.79093 5.1913 7.01366 5.07225 7.25614 5.02402C7.49861 4.97579 7.74995 5.00054 7.97836 5.09515C8.20676 5.18976 8.40199 5.34998 8.53934 5.55554C8.67669 5.7611 8.75 6.00277 8.75 6.25C8.75 6.58152 8.61831 6.89946 8.38388 7.13388C8.14946 7.3683 7.83152 7.5 7.5 7.5Z" fill="#CAC8C8"/>
<path d="M7.49995 15.0003C6.97367 15.003 6.4544 14.8795 5.98562 14.6403C5.51684 14.4011 5.1122 14.053 4.80558 13.6253C2.4237 10.3396 1.21558 7.86965 1.21558 6.2834C1.21558 4.61668 1.87768 3.01822 3.05623 1.83967C4.23478 0.661125 5.83323 -0.000976562 7.49995 -0.000976562C9.16667 -0.000976562 10.7651 0.661125 11.9437 1.83967C13.1222 3.01822 13.7843 4.61668 13.7843 6.2834C13.7843 7.86965 12.5762 10.3396 10.1943 13.6253C9.8877 14.053 9.48306 14.4011 9.01429 14.6403C8.54551 14.8795 8.02624 15.003 7.49995 15.0003ZM7.49995 1.3634C6.19521 1.36489 4.94434 1.88385 4.02175 2.80644C3.09916 3.72903 2.58019 4.97991 2.5787 6.28465C2.5787 7.5409 3.76183 9.86402 5.90933 12.8259C6.09164 13.077 6.33081 13.2814 6.60727 13.4223C6.88374 13.5632 7.18964 13.6367 7.49995 13.6367C7.81026 13.6367 8.11617 13.5632 8.39263 13.4223C8.6691 13.2814 8.90827 13.077 9.09058 12.8259C11.2381 9.86402 12.4212 7.5409 12.4212 6.28465C12.4197 4.97991 11.9007 3.72903 10.9782 2.80644C10.0556 1.88385 8.80469 1.36489 7.49995 1.3634Z" fill="#CAC8C8"/>
</g>
<defs>
<clipPath id="clip0_2325_79">
<rect width="15" height="15" fill="white"/>
</clipPath>
</defs>
</svg>
